<svg width="16" height="16" viewBox="0 0 16 16" fill="none" xmlns="http://www.w3.org/2000/svg">
<path fill-rule="evenodd" clip-rule="evenodd" d="M7.99998 1.33333C6.58549 1.33333 5.22894 1.89524 4.22874 2.89543C3.22855 3.89562 2.66665 5.25218 2.66665 6.66667C2.66665 8.73204 4.01047 10.7362 5.48395 12.2915C6.20705 13.0548 6.93243 13.6796 7.47776 14.1139C7.68072 14.2755 7.858 14.4101 7.99998 14.5151C8.14196 14.4101 8.31924 14.2755 8.5222 14.1139C9.06753 13.6796 9.79291 13.0548 10.516 12.2915C11.9895 10.7362 13.3333 8.73204 13.3333 6.66667C13.3333 5.25218 12.7714 3.89562 11.7712 2.89543C10.771 1.89524 9.41447 1.33333 7.99998 1.33333ZM7.99998 15.3333C7.63018 15.888 7.63001 15.8879 7.62982 15.8878L7.62791 15.8865L7.62347 15.8835L7.60819 15.8732C7.59521 15.8644 7.5767 15.8517 7.55302 15.8353C7.50567 15.8025 7.43762 15.7547 7.35184 15.6928C7.18034 15.5689 6.93755 15.3881 6.6472 15.1569C6.06753 14.6954 5.29291 14.0286 4.51601 13.2085C2.98949 11.5972 1.33331 9.26796 1.33331 6.66667C1.33331 4.89856 2.03569 3.20286 3.28593 1.95262C4.53618 0.702379 6.23187 0 7.99998 0C9.76809 0 11.4638 0.702379 12.714 1.95262C13.9643 3.20286 14.6666 4.89856 14.6666 6.66667C14.6666 9.26796 13.0105 11.5972 11.4839 13.2085C10.7071 14.0286 9.93242 14.6954 9.35276 15.1569C9.06241 15.3881 8.81962 15.5689 8.64812 15.6928C8.56234 15.7547 8.49429 15.8025 8.44694 15.8353C8.42326 15.8517 8.40475 15.8644 8.39177 15.8732L8.37649 15.8835L8.37205 15.8865L8.37064 15.8875C8.37045 15.8876 8.36978 15.888 7.99998 15.3333ZM7.99998 15.3333L8.36978 15.888C8.14585 16.0373 7.85375 16.0371 7.62982 15.8878L7.99998 15.3333Z" fill="#C29248"/>
<path fill-rule="evenodd" clip-rule="evenodd" d="M8.00001 5.33333C7.26363 5.33333 6.66668 5.93029 6.66668 6.66667C6.66668 7.40305 7.26363 8 8.00001 8C8.73639 8 9.33334 7.40305 9.33334 6.66667C9.33334 5.93029 8.73639 5.33333 8.00001 5.33333ZM5.33334 6.66667C5.33334 5.19391 6.52725 4 8.00001 4C9.47277 4 10.6667 5.19391 10.6667 6.66667C10.6667 8.13943 9.47277 9.33333 8.00001 9.33333C6.52725 9.33333 5.33334 8.13943 5.33334 6.66667Z" fill="#C29248"/>
</svg>
